<?xml version="1.0" standalone="no"?>
<!DOCTYPE svg PUBLIC "-//W3C//DTD SVG 20010904//EN"
 "http://www.w3.org/TR/2001/REC-SVG-20010904/DTD/svg10.dtd">
<svg version="1.0" xmlns="http://www.w3.org/2000/svg"
 width="573.000000pt" height="573.000000pt" viewBox="0 0 573.000000 573.000000"
 preserveAspectRatio="xMidYMid meet">

<g transform="translate(0.000000,573.000000) scale(0.100000,-0.100000)"
fill="#000000" stroke="none">
<path d="M0 2865 l0 -2865 2865 0 2865 0 0 2865 0 2865 -2865 0 -2865 0 0
-2865z m616 598 c100 -33 186 -111 230 -208 24 -53 51 -212 40 -241 -5 -12
-61 -14 -361 -14 l-355 0 0 -35 c0 -97 43 -206 107 -267 152 -147 440 -97 508
88 23 62 43 86 69 82 27 -4 24 -42 -9 -114 -31 -70 -93 -129 -173 -167 -61
-29 -76 -32 -162 -32 -154 0 -258 50 -332 161 -50 73 -68 138 -75 259 -14 244
97 429 292 491 57 18 163 17 221 -3z m1729 -5 c117 -38 195 -126 241 -272 60
-190 15 -418 -105 -535 -74 -72 -138 -94 -271 -95 -95 0 -111 2 -168 28 -42
19 -78 46 -108 79 l-44 49 0 -231 0 -231 -40 0 -40 0 2 603 3 602 33 3 32 3 0
-98 0 -98 26 40 c57 86 119 136 197 161 66 20 167 17 242 -8z m1327 11 c69
-15 112 -37 170 -88 73 -64 107 -151 132 -338 l6 -43 -366 0 -367 0 7 -66 c19
-189 134 -311 302 -322 143 -9 246 50 308 176 33 69 53 89 79 79 15 -6 15 -11
1 -59 -40 -138 -146 -226 -299 -250 -161 -25 -309 36 -391 162 -112 172 -87
489 50 638 95 103 223 141 368 111z m902 -9 c122 -38 190 -115 191 -215 0 -46
-2 -50 -24 -50 -21 0 -27 7 -36 46 -24 93 -72 141 -168 166 -67 17 -106 17
-181 -3 -119 -31 -166 -76 -166 -161 0 -54 32 -101 85 -124 24 -11 121 -39
214 -64 93 -24 182 -50 198 -59 100 -52 142 -185 92 -291 -46 -98 -154 -149
-314 -150 -170 0 -285 57 -339 168 -14 28 -28 71 -32 95 l-7 42 37 0 c32 0 36
-3 36 -27 0 -40 36 -107 79 -146 93 -84 265 -103 386 -42 76 38 105 79 105
149 0 64 -26 108 -77 134 -21 11 -110 41 -198 67 -266 77 -319 112 -331 222
-15 126 60 216 211 254 60 14 172 9 239 -11z m872 -14 c101 -46 152 -113 157
-203 2 -47 1 -48 -28 -48 -27 0 -30 4 -37 42 -15 93 -65 142 -168 169 -74 19
-150 14 -231 -14 -61 -21 -107 -70 -115 -124 -8 -44 24 -119 58 -142 14 -9
111 -38 215 -65 105 -27 204 -56 220 -64 130 -68 156 -253 51 -356 -115 -112
-372 -121 -524 -18 -58 39 -102 114 -111 186 l-6 51 29 0 c26 0 31 -6 47 -49
23 -67 95 -144 165 -178 48 -23 70 -28 137 -28 71 0 88 4 147 33 77 38 109 75
115 137 7 58 -12 110 -50 139 -19 15 -94 43 -187 69 -331 96 -370 124 -370
261 0 94 34 147 122 192 70 36 113 44 214 40 73 -2 102 -8 150 -30z m-4400 -4
c12 -9 59 -69 104 -132 70 -96 124 -168 161 -213 3 -5 64 70 135 165 70 95
135 178 144 185 16 13 80 18 80 6 0 -6 -142 -197 -250 -335 -32 -42 -51 -75
-48 -86 3 -9 78 -115 166 -234 89 -119 162 -219 162 -222 0 -3 -16 -6 -36 -6
-46 0 -56 11 -217 234 -67 93 -127 171 -132 172 -6 2 -66 -74 -135 -168 -154
-212 -178 -238 -219 -238 -17 0 -31 3 -31 7 0 5 130 181 317 429 l24 32 -134
173 c-73 96 -145 191 -161 212 l-28 37 38 0 c22 0 48 -8 60 -18z m1784 -68 l0
-87 41 47 c23 25 61 58 86 73 46 27 136 53 186 53 23 0 27 -4 27 -29 0 -26 -3
-29 -49 -34 -119 -14 -228 -99 -269 -210 -21 -54 -22 -75 -22 -337 l0 -280
-29 0 c-16 0 -31 4 -33 10 -1 5 -2 206 0 445 l2 435 30 0 30 0 0 -86z"/>
<path d="M425 3406 c-27 -7 -65 -20 -82 -29 -81 -43 -155 -158 -169 -264 l-7
-53 328 0 327 0 -7 48 c-14 97 -57 183 -117 239 -60 56 -183 83 -273 59z"/>
<path d="M2120 3407 c-63 -18 -132 -68 -168 -123 -87 -130 -87 -417 0 -545
123 -181 420 -167 533 25 31 54 65 183 65 250 0 108 -47 237 -111 310 -67 76
-211 114 -319 83z"/>
<path d="M3521 3410 c-140 -29 -241 -143 -265 -297 l-6 -43 309 0 c170 0 317
-3 327 -7 15 -6 16 -1 10 46 -23 172 -133 293 -278 305 -29 3 -73 1 -97 -4z"/>
</g>
</svg>
